<svg xmlns="http://www.w3.org/2000/svg" viewBox="0 0 128 128" fill="none">
  <defs>
    <linearGradient id="g1" x1="18" y1="12" x2="112" y2="118" gradientUnits="userSpaceOnUse">
      <stop offset="0" stop-color="#8BC3FF"/>
      <stop offset="1" stop-color="#287DFF"/>
    </linearGradient>
    <linearGradient id="g2" x1="41" y1="30" x2="93" y2="94" gradientUnits="userSpaceOnUse">
      <stop offset="0" stop-color="#FFFFFF" stop-opacity="0.98"/>
      <stop offset="1" stop-color="#DDEBFF" stop-opacity="0.92"/>
    </linearGradient>
  </defs>

  <rect x="10" y="10" width="108" height="108" rx="28" fill="url(#g1)"/>
  <rect x="10.5" y="10.5" width="107" height="107" rx="27.5" stroke="#FFFFFF" stroke-opacity="0.3"/>

  <path d="M50 46c0-6.63 5.37-12 12-12h8v12h-6c-1.1 0-2 .9-2 2v8h8v12h-8v22H50V68h-7V56h7v-10Z" fill="url(#g2)"/>

  <g opacity="0.96">
    <rect x="68" y="76" width="18" height="10" rx="5" fill="#EAF2FF"/>
    <rect x="82" y="68" width="18" height="10" rx="5" fill="#EAF2FF"/>
    <rect x="74" y="64" width="20" height="8" rx="4" transform="rotate(38 74 64)" fill="#FFFFFF"/>
  </g>
</svg>